<?xml version="1.0" encoding="UTF-8"?>
<svg id="Layer_1" data-name="Layer 1" height="32" width="32" xmlns="http://www.w3.org/2000/svg" viewBox="0 0 36 24">
  <defs>
    <style>
      .cls-1 {
        fill: #fff;
      }
    </style>
  </defs>
  <path class="cls-1" d="M1.5,24c-.43,0-.78-.14-1.07-.43-.29-.29-.43-.65-.43-1.08s.14-.78,.43-1.07,.64-.43,1.07-.43H34.5c.43,0,.78,.14,1.07,.43,.29,.29,.43,.65,.43,1.08s-.14,.78-.43,1.07-.64,.43-1.07,.43H1.5Zm0-10.5c-.43,0-.78-.14-1.07-.43-.29-.29-.43-.65-.43-1.08s.14-.78,.43-1.07,.64-.43,1.07-.43H34.5c.43,0,.78,.14,1.07,.43,.29,.29,.43,.65,.43,1.08s-.14,.78-.43,1.07-.64,.43-1.07,.43H1.5ZM1.5,3c-.43,0-.78-.14-1.07-.43-.29-.29-.43-.65-.43-1.08S.14,.71,.43,.43s.64-.43,1.07-.43H34.5c.43,0,.78,.14,1.07,.43,.29,.29,.43,.65,.43,1.08s-.14,.78-.43,1.07-.64,.43-1.07,.43H1.5Z"/>
</svg>